<svg xmlns="http://www.w3.org/2000/svg" xmlns:xlink="http://www.w3.org/1999/xlink" width="151" height="31" viewBox="0 0 151 31">
    <defs>
        <path id="a" d="M0 .415h23.21v28.289H0z"/>
    </defs>
    <g fill="none" fill-rule="evenodd">
        <path fill="#0E122B" d="M30.98 19.077c0 2.518 1.505 4.868 4.482 4.868 2.976 0 4.481-2.35 4.481-4.868 0-2.485-1.738-4.903-4.48-4.903-2.944 0-4.483 2.418-4.483 4.903m13.077 0c0 4.767-3.243 8.628-8.595 8.628-5.35 0-8.561-3.86-8.561-8.628 0-4.735 3.276-8.63 8.527-8.63 5.252 0 8.629 3.895 8.629 8.63M51.33 19.043c0 2.888 2.074 4.868 4.682 4.868 2.576 0 4.783-1.88 4.783-4.868 0-2.887-2.207-4.835-4.783-4.835-2.608 0-4.682 1.847-4.682 4.835zM65.143 3.867v23.47H61.33l-.267-2.284c-1.272 1.98-3.311 2.652-5.318 2.652-4.85 0-8.494-3.223-8.494-8.662 0-5.708 3.578-8.662 8.393-8.662 1.74 0 4.449.94 5.419 2.652V3.867h4.08zM81.87 17.13c-.268-2.15-1.94-3.224-4.281-3.224-2.208 0-4.013 1.074-4.615 3.223h8.895zm-8.963 3.391c.267 2.047 2.04 3.525 4.916 3.525 1.504 0 3.478-.57 4.415-1.544l2.608 2.585c-1.738 1.812-4.581 2.686-7.09 2.686-5.685 0-9.063-3.525-9.063-8.83 0-5.037 3.41-8.662 8.762-8.662 5.518 0 8.964 3.423 8.327 10.24H72.907zM105.327 27.37v-9.501H93.822v9.5h-4.414V3.868h4.414v9.905h11.505V3.867h4.382V27.37zM117.339 10.784v8.661c0 2.52 1.371 4.432 3.98 4.432 2.508 0 4.214-2.114 4.214-4.633v-8.46h4.046V27.37h-3.646l-.266-2.25c-1.706 1.68-3.278 2.484-5.586 2.484-3.947 0-6.822-2.987-6.822-8.124v-8.696h4.08zM137.477 19.043c0 2.989 2.208 4.868 4.783 4.868 2.609 0 4.682-1.98 4.682-4.868 0-2.988-2.073-4.835-4.682-4.835-2.575 0-4.783 1.948-4.783 4.835zm-.267-15.176v9.166c.97-1.712 3.679-2.652 5.417-2.652 4.817 0 8.395 2.954 8.395 8.662 0 5.44-3.645 8.662-8.494 8.662-2.007 0-4.048-.672-5.318-2.652l-.267 2.283h-3.814V3.867h4.08z"/>
        <g transform="translate(0 1.902)">
            <mask id="b" fill="#fff">
                <use xlink:href="#a"/>
            </mask>
            <path fill="#F68100" d="M23.21 19.116V5.253A12.44 12.44 0 0 0 18.383.435V7.68c.006.01.013.02.017.03v8.906c-1.253 2.465-3.611 4.108-6.788 4.108-3.21 0-5.571-1.678-6.805-4.185V7.757l.017-.032V.415A12.254 12.254 0 0 0 0 5.325v13.672c2.108 3.901 6.139 6.513 11.618 6.513.523 0 1.027-.03 1.522-.077l6.257 3.271 2.22-4.281-2.204-1.153a12.105 12.105 0 0 0 3.796-4.154" mask="url(#b)"/>
        </g>
        <path fill="#F68100" d="M17.312 1.165C15.622.422 13.697 0 11.567 0 9.457 0 7.56.415 5.898 1.144V7.35c1.34-1.577 3.283-2.563 5.684-2.563 2.4 0 4.366.986 5.73 2.562V1.165z"/>
    </g>
</svg>
