<svg xmlns="http://www.w3.org/2000/svg" width="164" height="195" viewBox="0 0 164 195">
    <g fill="none" fill-rule="nonzero">
        <path fill="#0E122B" d="M106.509 150c7.999-.01 14.481-6.436 14.491-14.366V75.887C120.73 68.14 114.318 62 106.5 62S92.27 68.14 92 75.887v59.747c.01 7.93 6.492 14.357 14.491 14.366h.018zm-5.852-14.366V75.887c.169-3.077 2.735-5.486 5.843-5.486s5.674 2.409 5.843 5.486v59.747c0 3.194-2.612 5.784-5.834 5.784a5.86 5.86 0 0 1-4.137-1.688 5.76 5.76 0 0 1-1.715-4.096zM63.509 153c7.999-.01 14.481-6.45 14.491-14.4V95.92C77.73 88.155 71.318 82 63.5 82S49.27 88.155 49 95.919V138.6c.01 7.948 6.492 14.39 14.491 14.399h.018zm-5.852-14.4V95.92c.169-3.084 2.735-5.499 5.843-5.499s5.674 2.415 5.843 5.499V138.6c0 3.202-2.612 5.797-5.834 5.797a5.854 5.854 0 0 1-4.137-1.692 5.78 5.78 0 0 1-1.715-4.105zM149.5 46c-8.004.01-14.49 6.458-14.5 14.415v77.17c.01 7.957 6.496 14.406 14.5 14.415 8.004-.01 14.49-6.458 14.5-14.415v-77.17c-.01-7.957-6.496-14.406-14.5-14.415zm5.855 91.585c0 1.54-.615 3.016-1.71 4.104a5.856 5.856 0 0 1-4.128 1.7c-3.224 0-5.838-2.598-5.838-5.804v-77.17c.17-3.088 2.737-5.505 5.847-5.505 3.11 0 5.678 2.417 5.847 5.505l-.018 77.17zM22.509 151c7.999-.01 14.481-6.355 14.491-14.186v-25.101C36.73 104.063 30.318 98 22.5 98S8.27 104.064 8 111.713v25.1C8.01 144.652 14.503 151 22.509 151zm-5.835-39.287c.169-3.039 2.735-5.418 5.843-5.418 3.109 0 5.675 2.38 5.844 5.418v25.1c0 3.155-2.613 5.713-5.835 5.713s-5.835-2.558-5.835-5.712l-.017-25.101z"/>
        <path fill="#F68100" d="M139.04 33.133a4.323 4.323 0 0 0 4.19-1.458l14.75-17.6a4.199 4.199 0 0 0 .853-3.914 4.264 4.264 0 0 0-2.827-2.869L133.993.205a4.332 4.332 0 0 0-4.304.989 4.203 4.203 0 0 0-1.14 4.216l2.284 7.766-90.39 28.825c-4.017-7.003-12.661-9.992-20.226-6.994C12.653 38.005 8.5 46.066 10.5 53.87c2 7.802 9.536 12.942 17.634 12.026 8.098-.917 14.261-7.606 14.422-15.653L133.22 21.4l2.576 8.749a4.271 4.271 0 0 0 3.245 2.984zm8.295-19.652l-5.564 6.63-2.73-9.292 8.294 2.662zM28.39 57.363c-4.098 1.171-8.382-1.159-9.57-5.205-1.187-4.046 1.17-8.277 5.267-9.452 4.096-1.175 8.382 1.15 9.574 5.196 1.184 4.05-1.174 8.28-5.271 9.461z"/>
    </g>
</svg>
