<svg xmlns="http://www.w3.org/2000/svg" width="375" height="393" viewBox="0 0 375 393">
    <g fill="none" fill-rule="evenodd">
        <path fill="#FFF" d="M-88-1089h1280v3648H-88z"/>
        <g fill-rule="nonzero" transform="translate(100 100)">
            <ellipse cx="40.861" cy="48.359" fill="#F68100" rx="17.686" ry="17.672"/>
            <path fill="#F68100" d="M79.282 35.563c-3.659-.204-6.912 2.64-7.115 6.296-.406 6.297-2.44 17.063-5.692 20.922-2.846 3.453-10.164 7.516-13.823 7.516H30.29c-7.115 0-10.571 4.266-13.01 8.125-.61 1.016-1.627 2.234-2.643 3.656-3.05 4.063-6.302 8.531-7.522 12.39-1.22 4.063-6.099 17.47-6.099 17.47-1.22 3.453.61 7.312 4.066 8.734.813.203 1.627.406 2.236.406 2.846 0 5.286-1.625 6.302-4.469.204-.609 5.082-13.812 6.302-18.078.407-1.422 2.44-4.265 4.27-6.703l-1.22 26.406-18.906 64.188c-1.22 4.266 1.22 8.937 5.489 10.156.813.203 1.626.406 2.236.406 3.456 0 6.911-2.234 7.928-5.89l16.06-54.64-1.22 52.202c0 4.469 3.456 8.328 7.928 8.328 4.473.203 8.335-3.453 8.335-7.922l1.626-64.187L55.701 83.5c7.928-1.422 16.67-6.906 21.142-12.39 7.115-8.735 8.538-26.61 8.538-28.438.406-3.656-2.44-6.703-6.099-7.11z"/>
            <ellipse cx="133.967" cy="48.359" fill="#0E122B" rx="17.686" ry="17.672"/>
            <path fill="#0E122B" d="M154.905 98.938c1.423 4.265 6.099 17.468 6.302 18.078 1.017 2.64 3.66 4.468 6.302 4.468.813 0 1.627-.203 2.236-.406 3.456-1.219 5.286-5.078 4.066-8.734 0-.203-4.879-13.406-6.098-17.469-1.22-4.063-4.676-8.531-7.522-12.39a243.4 243.4 0 0 0-2.643-3.657c-2.44-3.86-6.099-8.125-13.01-8.125h-22.362c-3.66 0-10.978-4.062-13.824-7.516-3.252-3.859-5.285-14.624-5.692-20.921-.203-3.657-3.456-6.5-7.115-6.297-3.659.203-6.505 3.453-6.302 7.11.204 2.03 1.627 19.702 8.538 28.437 4.27 5.28 13.214 10.968 21.142 12.39l3.456 36.969 1.423 63.984c0 4.47 3.66 8.125 8.335 7.922 4.472 0 8.132-3.86 7.928-8.328l-1.22-52.203 16.06 54.64c1.017 3.657 4.27 5.891 7.929 5.891.813 0 1.626-.203 2.236-.406 4.269-1.219 6.912-5.89 5.489-10.156l-18.703-63.985-1.22-26.406c1.83 2.64 3.863 5.688 4.27 7.11z"/>
            <path fill="#000" d="M91.073 16.672v-13a3.643 3.643 0 0 0-3.66-3.656 3.643 3.643 0 0 0-3.658 3.656v13a3.643 3.643 0 0 0 3.659 3.656 3.643 3.643 0 0 0 3.659-3.656zM69.728 25.61c.61.812 1.626 1.015 2.642 1.015 1.017 0 1.83-.406 2.643-1.016a3.554 3.554 0 0 0 0-5.078l-9.351-9.343a3.56 3.56 0 0 0-5.082 0 3.554 3.554 0 0 0 0 5.078l9.148 9.343z"/>
            <path fill="#0E122B" d="M102.457 26.625c1.017 0 1.83-.406 2.643-1.016l9.148-9.14a3.554 3.554 0 0 0 0-5.078 3.56 3.56 0 0 0-5.082 0l-9.148 9.14a3.554 3.554 0 0 0 0 5.078c.61.61 1.626 1.016 2.44 1.016z"/>
        </g>
    </g>
</svg>
